# xmcd CD database file
#
# Track frame offsets:
#	150
#	6283
#	9266
#	12174
#	17289
#	20349
#	23030
#	26804
#	29954
#	33303
#	35489
#	38294
#	40811
#	43501
#	45831
#	48353
#	50475
#	52103
#	53765
#	55413
#	59169
#	62105
#	65044
#	68243
#	71521
#	74203
#	76897
#	81190
#	83985
#	87269
#	90007
#	93356
#	96347
#	100832
#	103994
#	106534
#	107181
#
# Disc length: 1474 seconds
#
# Revision: 1
# Processed by: cddbd v1.5.2PL0 Copyright (c) Steve Scherf et al.
# Submitted via: CD2WAV32(JP) R3.22
#
DISCID=e405c025
DTITLE=Hal Leonard - Guitar Signature Licks Of Robert Johnson
DYEAR=1989
DGENRE=Blues
TTITLE0=Kind Hearted Woman Blues Intro, Verse 1 and 2
TTITLE1=Kind Hearted Woman Blues Bridge
TTITLE2=Kind Hearted Woman Blues Solo
TTITLE3=Dust My Broom Intro, Verse 1 and 2
TTITLE4=Sweet Home Chicago Intro, Verse 1
TTITLE5=Sweet Home Chicago Verse 3
TTITLE6=Ramblin On My Mind Intro, Verse 1
TTITLE7=Ramblin On My Mind Verse 3
TTITLE8=Come on In My Kitchen Intro, Verse 1
TTITLE9=Come on In My Kitchen Verse 3
TTITLE10=Come on In My Kitchen Bridge
TTITLE11=Come on In My Kitchen Verse 5
TTITLE12=Terraplane Blues Intro, Verse 1
TTITLE13=Terraplane Blues Bridge
TTITLE14=Terraplane Verse 4
TTITLE15=32-20 Blues Intro, Verse 1
TTITLE16=32-20 Blues Verse 2
TTITLE17=32-20 Blues Verse 6
TTITLE18=32-20 Blues Verse 10
TTITLE19=Crossroads Intro, Verse 1
TTITLE20=Crossroads Verse 2
TTITLE21=Crossroads Verse 3
TTITLE22=Crossroads Verse 4
TTITLE23=Walkin Blues Intro, Verse 1
TTITLE24=Walkin Blues Verse 3
TTITLE25=Walkin Blues Verse 4
TTITLE26=Preachin Blues Intro, Verse 1
TTITLE27=Preachin Blues Verse 2
TTITLE28=Judgement Day Intro, Verse 1
TTITLE29=Judgement Day Verse 5
TTITLE30=Steady Rollin Man Intro, Verse 1
TTITLE31=Steady Rollin Man Verse 5
TTITLE32=Hell Hound on My Trail Intro, Verse 1
TTITLE33=Hell Hound on My Trail Verse 3
TTITLE34=Stop Breakin Down Blues Intro, Verse 1
TTITLE35=Stop Breakin Down Blues Verse 3
TTITLE36=Love in Vain Blues Intro, Verse 1
EXTD=
EXTT0=
EXTT1=
EXTT2=
EXTT3=
EXTT4=
EXTT5=
EXTT6=
EXTT7=
EXTT8=
EXTT9=
EXTT10=
EXTT11=
EXTT12=
EXTT13=
EXTT14=
EXTT15=
EXTT16=
EXTT17=
EXTT18=
EXTT19=
EXTT20=
EXTT21=
EXTT22=
EXTT23=
EXTT24=
EXTT25=
EXTT26=
EXTT27=
EXTT28=
EXTT29=
EXTT30=
EXTT31=
EXTT32=
EXTT33=
EXTT34=
EXTT35=
EXTT36=
PLAYORDER=
